<?xml version="1.0" encoding="utf-8"?>
<!-- Generator: Adobe Illustrator 19.0.1, SVG Export Plug-In . SVG Version: 6.00 Build 0)  -->
<svg version="1.1" id="Layer_1" xmlns="http://www.w3.org/2000/svg" xmlns:xlink="http://www.w3.org/1999/xlink" x="0px" y="0px"
	 viewBox="0 0 159.3 45" style="enable-background:new 0 0 159.3 45;" xml:space="preserve">
<style type="text/css">
	.st0{fill:#EE1D3E;}
	.st1{fill:#FFFFFF;}
</style>
<g>
	<g>
		<path class="st0" d="M33.8,9.4c-6,0-10.8,4.9-10.8,10.8c0,6,4.9,10.8,10.8,10.8c6,0,10.8-4.9,10.8-10.8
			C44.7,14.3,39.8,9.4,33.8,9.4z M33.8,25c-2.6,0-4.7-2.1-4.7-4.7s2.1-4.7,4.7-4.7c2.6,0,4.7,2.1,4.7,4.7S36.4,25,33.8,25z M21.6,45
			c-2.6,0-4.7-2.1-4.7-4.7s2.1-4.7,4.7-4.7c2.6,0,4.7,2.1,4.7,4.7S24.2,45,21.6,45z"/>
		<g>
			<path class="st1" d="M19.4,27.5c-2,2.3-5,3.6-8.2,3.6C5.4,31.1,0,26.9,0,20.2C0,14.4,4.5,9.4,10.7,9.4c3.5,0,6.1,1.4,7.9,3.2
				L17,14.5c-1.5-1.5-3.6-2.6-6.3-2.6c-4.4,0-8.2,3.6-8.2,8.4c0,4.6,3.6,8.4,8.5,8.4c2.4,0,4.6-1,6.4-2.9L19.4,27.5z"/>
			<path class="st1" d="M59.5,11.9c-0.3,0-1.1,0-1.2,0c-2.8,0-5.4,1.9-6.5,4.6v14.2h-2.6V9.9h2.6v2.7c1-1.5,3.3-3.2,6.6-3.2
				c0.4,0,1.3,0,1.5,0.1L59.5,11.9z"/>
			<path class="st1" d="M80.9,27.3c-1.5,2-4.5,3.8-8.5,3.8c-5.8,0-10.4-4.4-10.4-10.8c0-6,4.1-10.8,9.9-10.8c5.6,0,9.7,4.4,9.7,10.2
				c0,0.2,0,0.5,0,0.9H64.6c0.2,4.4,3.1,8.2,7.8,8.2c2.7,0,5-1.1,6.6-3.1L80.9,27.3z M64.8,18.1h14.2c-0.5-3.6-3.4-6.2-7-6.2
				C68.3,11.9,65.5,14.5,64.8,18.1z"/>
			<path class="st1" d="M94.4,29.1C91.7,27.2,90,24,90,20.2c0-3.5,1.5-6.5,3.9-8.5c1.7-1.4,4.1-2.3,6.6-2.3c2.9,0,5.6,1.1,7.5,3.2V0
				h2.6v30.6h-2.5v-3.1c-1.5,2.1-4.2,3.5-7.5,3.5C98.6,31.1,96.5,30.6,94.4,29.1z M108,16.1c-0.9-1.5-3.6-4.2-7.5-4.2
				c-1.7,0-3.6,0.6-5,1.8c-1.8,1.5-2.9,3.9-2.9,6.6c0,2.9,1.3,5.4,3.3,6.8c1.3,0.9,2.9,1.5,4.7,1.5c3.1,0,5.8-1.7,7.4-4.6V16.1z"/>
			<path class="st1" d="M118.1,12.8c1.7-2.2,4.4-3.4,7.3-3.4c3,0,5.7,1.2,7.4,3.5c1.1,1.5,1.8,3.2,1.8,6.6v11.1h-2.6V19.7
				c0-2.7-0.5-4.1-1.2-5.1c-1.2-1.7-3.1-2.8-5.4-2.8c-3,0-5.6,1.6-7.2,4.3v14.4h-2.6V9.9h2.5V12.8z"/>
			<path class="st1" d="M156.8,30.6v-3.1c-1.5,2.1-4.2,3.5-7.5,3.5c-2,0-4.1-0.5-6.2-2c-2.7-1.9-4.4-5.1-4.4-8.9
				c0-3.5,1.5-6.5,3.9-8.5c1.7-1.4,4.1-2.3,6.6-2.3c3,0,5.7,1.2,7.6,3.3V9.9h2.5v20.8H156.8z M156.7,16.1c-0.9-1.5-3.6-4.2-7.5-4.2
				c-1.7,0-3.6,0.6-5,1.8c-1.8,1.5-2.9,3.9-2.9,6.6c0,2.9,1.3,5.4,3.3,6.8c1.3,0.9,2.9,1.5,4.7,1.5c3.1,0,5.8-1.7,7.4-4.6V16.1z"/>
		</g>
	</g>
</g>
</svg>
